#!OML:ASF F:\VICON\USERDATA\INSTALL\rory3\rory3.ASF
:FULLY-SPECIFIED
:DEGREES
45
root -5.902358749324943 17.86515958229951 2.9775861952356397 1.6149312926986426 39.457457264097684 -12.170237830392537
lfemur -2.828127636390679 22.71078253183557 7.098256546668745
ltibia 35.49906883676681
lfoot 9.321802738354066 8.569804547187596
ltoes -7.861332687462404
rfemur -31.2295270895589 17.883958080992993 23.87232768397234
rtibia 29.828624192383078
rfoot -2.9985696510687054 27.420640194857327
rtoes 37.790625374659996
lowerback 4.21376769455749 -9.337573674822329 -15.09110130627746
upperback -0.5730524598098676 -13.493124328725408 -4.736670979963623
thorax -0.37796379799185814 -6.559452931477821 3.3586321574805975
lowerneck -6.661740443510121 23.25127987818505 -0.7649463769981101
upperneck 13.73683184740013 32.79044511658249 -11.827471185847454
head 7.727728875377213 14.802202798907059 -0.6198382604990983
lclavicle -4.996513327573465e-15 -1.0310427020568353e-14
lhumerus 111.34939380307912 -36.023744568338365 42.548459698998
lradius 38.60131964508268
lwrist 7.524487174808753
lhand -24.179240479964278 -2.115826832156838
lfingers 7.125020000000001
lthumb -179.15153225896267 236.5101472837868
rclavicle -4.9907524587033095e-15 -1.0187528505875337e-14
rhumerus 34.24424504612073 -26.917086295298038 -51.75163868364927
rradius 104.01017804278095
rwrist -3.158964345003948
rhand -60.822675497814146 11.2380766630067
rfingers 7.125020000000001
rthumb -34.39409476354577 -9.898744614152271
46
root -5.93037592092193 17.83680476666023 2.838606169693355 1.8492496104917535 41.70924886975888 -12.703269112207934
lfemur -3.949519335459053 23.433152083266258 6.970482991835777
ltibia 35.38643031410282
lfoot 7.901837281554762 9.256284303439811
ltoes -5.786973458810366
rfemur -32.39590427785869 16.896864800607162 23.971042397137516
rtibia 29.859918959115404
rfoot -3.299813815563261 27.03919498928223
rtoes 37.48765426997332
lowerback 4.928689382805775 -9.381413002753586 -14.938140407878183
upperback -0.14896444963362665 -13.535423481840134 -4.520821465212949
thorax -0.1323727622498279 -6.631786642285833 3.5505914802438454
lowerneck -7.015970519800771 23.273112297223197 -0.8101801306590393
upperneck 14.000039271658583 32.77484662739704 -11.652090315399228
head 7.852122497621974 14.689956796808396 -0.5230027414381498
lclavicle -4.999867427124575e-15 -1.0296961679120859e-14
lhumerus 109.3954722195169 -36.37312131036998 43.19822036893692
lradius 38.191758274437554
lwrist 8.026766854278854
lhand -22.907299943205402 -1.913288956740704
lfingers 7.125020000000001
lthumb -178.539622584768 240.76841091272996
rclavicle -4.992309591781388e-15 -1.0188935211800852e-14
rhumerus 34.37039620804758 -25.98835378495331 -53.05807456082149
rradius 103.15040677098898
rwrist -4.904450353954861
rhand -60.857011290400166 11.663947582784115
rfingers 7.125020000000001
rthumb -34.89615134180067 -8.460635450359963
47
root -5.963372224183092 17.831983371906105 2.683242313380303 2.6723987317159867 44.42962418375094 -12.52377495872571
lfemur -5.32332221817588 24.3246384904281 6.742936226437186
ltibia 35.31409577375749
lfoot 6.197535751681846 9.662169636924817
ltoes -4.172605851351981
rfemur -33.475198970779786 15.678662365838191 24.00547161913368
rtibia 29.816023755775525
rfoot -3.626362436755925 26.473870102583582
rtoes 35.58184010579851
lowerback 5.660915529394373 -9.461290226349025 -14.727232755693409
upperback 0.2897422138266643 -13.633138099411326 -4.171807419816423
thorax 0.14509382020871509 -6.729834817746294 3.837478625970892
lowerneck -7.142421226108317 23.146999503900958 -0.6167712336308812
upperneck 14.34162582834804 32.620267239407596 -11.59296101751989
head 8.02487876922029 14.54009633508143 -0.5186310615325302
lclavicle -5.001766567712025e-15 -1.0281952318804611e-14
lhumerus 106.71007372544874 -36.910565536270326 44.6094072029768
lradius 37.70090832885394
lwrist 8.491350154716757
lhand -21.68207614765709 -1.6591462384676205
lfingers 7.125020000000001
lthumb -177.84573213882726 249.34031697383085
rclavicle -4.99258228105581e-15 -1.0189213706939814e-14
rhumerus 34.44525587974447 -25.125278269160813 -54.59216378095031
rradius 102.28427434546205
rwrist -6.739103873704032
rhand -60.94128809565949 12.464032620673
rfingers 7.125020000000001
rthumb -35.627626988851674 -7.154383505933051
48
root -5.9996406376638225 17.818163064897718 2.5017607052084596 3.235460441238061 47.751204477696355 -12.84976541338024
lfemur -6.988464155309332 25.173540443320643 6.392626046785825
ltibia 35.16696422401763
lfoot 4.551099970958574 9.834382786352405
ltoes -2.439607198416734
rfemur -34.76922330346643 14.254646630336003 23.986228542900157
rtibia 29.767298784282957
rfoot -3.92465348005251 25.67303170526982
rtoes 34.31135413041554
lowerback 6.325627577411902 -9.54442862301577 -14.308868857097737
upperback 0.8345377850768871 -13.712729902737987 -3.7123447603482265
thorax 0.5159036907012204 -6.847360553994294 4.177162675047864
lowerneck -7.415758056311901 22.926072051148946 -0.42240262612841617
upperneck 14.752182293716995 32.45978668098089 -11.598243869438495
head 8.224952437213004 14.36970252313836 -0.5180975554115193
lclavicle -5.003431215127977e-15 -1.0275275376263611e-14
lhumerus 103.33521386540619 -37.59868162333254 46.81523940519563
lradius 37.145957273270106
lwrist 8.901024600401167
lhand -20.289194694908403 -1.286057517434049
lfingers 7.125020000000001
lthumb -177.0627010659625 253.9318146270299
rclavicle -4.993047957472502e-15 -1.0189776763601317e-14
rhumerus 34.28684842365552 -24.031530606120516 -56.31920803633339
rradius 101.35309147250001
rwrist -8.719654099066549
rhand -61.354358207130005 13.613222787096028
rfingers 7.125020000000001
rthumb -36.5153014325189 -5.853588421641817
